<mxfile host="app.diagrams.net" modified="2021-08-30T06:24:07.770Z" agent="5.0 (Macintosh; Intel Mac OS X 10_15_7) AppleWebKit/537.36 (KHTML, like Gecko) Chrome/92.0.4515.159 Safari/537.36" etag="MH8SpM1H5CkcO-rF4BGS" version="15.0.3" type="github">
  <diagram id="KGTceMjWvl06m6KZINOi" name="Page-1">
    <mxGraphModel dx="2066" dy="826" grid="1" gridSize="10" guides="1" tooltips="1" connect="1" arrows="1" fold="1" page="1" pageScale="1" pageWidth="850" pageHeight="1100" math="0" shadow="0">
      <root>
        <mxCell id="0" />
        <mxCell id="1" parent="0" />
        <mxCell id="H90NO_VA1-BqYqaYmaSq-1" value="AutoDiffUser" style="whiteSpace=wrap;html=1;sketch=1;rounded=1;" vertex="1" parent="1">
          <mxGeometry y="50" width="840" height="50" as="geometry" />
        </mxCell>
        <mxCell id="H90NO_VA1-BqYqaYmaSq-4" value="静态图" style="swimlane;sketch=1;rounded=1;" vertex="1" parent="1">
          <mxGeometry y="100" width="420" height="230" as="geometry" />
        </mxCell>
        <mxCell id="H90NO_VA1-BqYqaYmaSq-6" value="paddle.gradient" style="whiteSpace=wrap;html=1;sketch=1;rounded=1;" vertex="1" parent="H90NO_VA1-BqYqaYmaSq-4">
          <mxGeometry y="24" width="420" height="70" as="geometry" />
        </mxCell>
        <mxCell id="H90NO_VA1-BqYqaYmaSq-7" value="API" style="text;html=1;strokeColor=none;fillColor=none;align=center;verticalAlign=middle;whiteSpace=wrap;sketch=1;rounded=1;" vertex="1" parent="H90NO_VA1-BqYqaYmaSq-4">
          <mxGeometry y="24" width="40" height="20" as="geometry" />
        </mxCell>
        <mxCell id="H90NO_VA1-BqYqaYmaSq-13" value="GradOpMaker&amp;lt;OpDesc&amp;gt;" style="whiteSpace=wrap;html=1;sketch=1;rounded=1;" vertex="1" parent="H90NO_VA1-BqYqaYmaSq-4">
          <mxGeometry y="164" width="420" height="70" as="geometry" />
        </mxCell>
        <mxCell id="H90NO_VA1-BqYqaYmaSq-14" value="算子注册" style="text;html=1;strokeColor=none;fillColor=none;align=center;verticalAlign=middle;whiteSpace=wrap;sketch=1;rounded=1;" vertex="1" parent="H90NO_VA1-BqYqaYmaSq-4">
          <mxGeometry y="164" width="60" height="20" as="geometry" />
        </mxCell>
        <mxCell id="H90NO_VA1-BqYqaYmaSq-16" value="Executor/ParallelExector" style="whiteSpace=wrap;html=1;sketch=1;rounded=1;" vertex="1" parent="H90NO_VA1-BqYqaYmaSq-4">
          <mxGeometry y="94" width="420" height="70" as="geometry" />
        </mxCell>
        <mxCell id="H90NO_VA1-BqYqaYmaSq-17" value="执行" style="text;html=1;strokeColor=none;fillColor=none;align=center;verticalAlign=middle;whiteSpace=wrap;sketch=1;rounded=1;" vertex="1" parent="H90NO_VA1-BqYqaYmaSq-4">
          <mxGeometry y="94" width="40" height="20" as="geometry" />
        </mxCell>
        <mxCell id="H90NO_VA1-BqYqaYmaSq-5" value="动态图" style="swimlane;sketch=1;rounded=1;" vertex="1" parent="1">
          <mxGeometry x="420" y="100" width="420" height="230" as="geometry" />
        </mxCell>
        <mxCell id="H90NO_VA1-BqYqaYmaSq-8" value="paddle.grad" style="whiteSpace=wrap;html=1;sketch=1;rounded=1;" vertex="1" parent="H90NO_VA1-BqYqaYmaSq-5">
          <mxGeometry y="24" width="420" height="70" as="geometry" />
        </mxCell>
        <mxCell id="H90NO_VA1-BqYqaYmaSq-9" value="API" style="text;html=1;strokeColor=none;fillColor=none;align=center;verticalAlign=middle;whiteSpace=wrap;sketch=1;rounded=1;" vertex="1" parent="H90NO_VA1-BqYqaYmaSq-5">
          <mxGeometry y="24" width="40" height="20" as="geometry" />
        </mxCell>
        <mxCell id="H90NO_VA1-BqYqaYmaSq-10" value="partial_engine" style="whiteSpace=wrap;html=1;sketch=1;rounded=1;" vertex="1" parent="H90NO_VA1-BqYqaYmaSq-5">
          <mxGeometry y="94" width="420" height="70" as="geometry" />
        </mxCell>
        <mxCell id="H90NO_VA1-BqYqaYmaSq-11" value="执行" style="text;html=1;strokeColor=none;fillColor=none;align=center;verticalAlign=middle;whiteSpace=wrap;sketch=1;rounded=1;" vertex="1" parent="H90NO_VA1-BqYqaYmaSq-5">
          <mxGeometry y="94" width="40" height="20" as="geometry" />
        </mxCell>
        <mxCell id="H90NO_VA1-BqYqaYmaSq-12" value="GradOpMaker&amp;lt;OpBase&amp;gt;" style="whiteSpace=wrap;html=1;sketch=1;rounded=1;" vertex="1" parent="H90NO_VA1-BqYqaYmaSq-5">
          <mxGeometry y="164" width="420" height="70" as="geometry" />
        </mxCell>
        <mxCell id="H90NO_VA1-BqYqaYmaSq-15" value="算子注册" style="text;html=1;strokeColor=none;fillColor=none;align=center;verticalAlign=middle;whiteSpace=wrap;sketch=1;rounded=1;" vertex="1" parent="H90NO_VA1-BqYqaYmaSq-5">
          <mxGeometry y="164" width="60" height="20" as="geometry" />
        </mxCell>
        <mxCell id="H90NO_VA1-BqYqaYmaSq-18" value="OpInfo" style="whiteSpace=wrap;html=1;sketch=1;rounded=1;" vertex="1" parent="1">
          <mxGeometry y="335" width="840" height="70" as="geometry" />
        </mxCell>
      </root>
    </mxGraphModel>
  </diagram>
</mxfile>
